# Simulation-only octagonal prop-guard contact ring.
# Outer radius: 0.30 m; clear inner radius: 0.25 m; height: 0.04 m.
o competition_guard_ring
v 0.300000 0.000000 0.020000
v 0.212132 0.212132 0.020000
v 0.000000 0.300000 0.020000
v -0.212132 0.212132 0.020000
v -0.300000 0.000000 0.020000
v -0.212132 -0.212132 0.020000
v 0.000000 -0.300000 0.020000
v 0.212132 -0.212132 0.020000
v 0.250000 0.000000 0.020000
v 0.176777 0.176777 0.020000
v 0.000000 0.250000 0.020000
v -0.176777 0.176777 0.020000
v -0.250000 0.000000 0.020000
v -0.176777 -0.176777 0.020000
v 0.000000 -0.250000 0.020000
v 0.176777 -0.176777 0.020000
v 0.300000 0.000000 -0.020000
v 0.212132 0.212132 -0.020000
v 0.000000 0.300000 -0.020000
v -0.212132 0.212132 -0.020000
v -0.300000 0.000000 -0.020000
v -0.212132 -0.212132 -0.020000
v 0.000000 -0.300000 -0.020000
v 0.212132 -0.212132 -0.020000
v 0.250000 0.000000 -0.020000
v 0.176777 0.176777 -0.020000
v 0.000000 0.250000 -0.020000
v -0.176777 0.176777 -0.020000
v -0.250000 0.000000 -0.020000
v -0.176777 -0.176777 -0.020000
v 0.000000 -0.250000 -0.020000
v 0.176777 -0.176777 -0.020000
f 1 2 10 9
f 2 3 11 10
f 3 4 12 11
f 4 5 13 12
f 5 6 14 13
f 6 7 15 14
f 7 8 16 15
f 8 1 9 16
f 17 25 26 18
f 18 26 27 19
f 19 27 28 20
f 20 28 29 21
f 21 29 30 22
f 22 30 31 23
f 23 31 32 24
f 24 32 25 17
f 1 17 18 2
f 2 18 19 3
f 3 19 20 4
f 4 20 21 5
f 5 21 22 6
f 6 22 23 7
f 7 23 24 8
f 8 24 17 1
f 9 10 26 25
f 10 11 27 26
f 11 12 28 27
f 12 13 29 28
f 13 14 30 29
f 14 15 31 30
f 15 16 32 31
f 16 9 25 32
